<svg xmlns="http://www.w3.org/2000/svg" width="185" height="104" viewBox="0 0 185 104" fill="none"><g id="Group 2"><g id="Clip path group"><mask id="mask0_12_2" style="mask-type:luminance" maskUnits="userSpaceOnUse" x="0" y="0" width="185" height="104"><g id="clippath"><path id="Vector" d="M184.948 0H0V104H184.948V0Z" fill="white"/></g></mask><g mask="url(#mask0_12_2)"><g id="Group"><g id="Clip path group_2"><mask id="mask1_12_2" style="mask-type:luminance" maskUnits="userSpaceOnUse" x="0" y="0" width="185" height="104"><g id="clippath-1"><path id="Vector_2" d="M184.948 0H0V104H184.948V0Z" fill="white"/></g></mask><g mask="url(#mask1_12_2)"><g id="Group_2"><path id="Vector_3" d="M11.3971 89.5418L6.02557 18.1946L92.4313 4.96948L178.918 18.2L173.551 89.5472L92.4313 99.0144L11.3971 89.5472V89.5418ZM92.4313 0L0 13.5736L7.30144 94.061L43.9802 98.3443L46.1406 98.5963L48.4887 98.8697L67.2676 101.062L69.6157 101.341L92.4313 104.005L115.322 101.336L117.665 101.062L136.438 98.875L138.786 98.6016L140.947 98.3497L177.647 94.0664L184.948 13.579L92.4313 0Z" fill="#FBF8F0"/><path id="Vector_4" fill-rule="evenodd" clip-rule="evenodd" d="M15.0959 86.4755L92.4312 95.5085L169.852 86.4755L174.119 21.245L92.4312 8.45402L10.8287 21.245L15.0959 86.4755ZM92.3454 97.0524L14.3722 87.9443L13.82 87.88L13.7074 87.3386L9.14002 20.6928L8.95239 19.8136L9.84765 19.7654L92.3883 6.9101H92.4687L175.09 19.76L175.985 19.8082L175.797 20.6874L171.23 87.3332L171.117 87.8746L170.571 87.939L92.5116 97.047H92.34L92.3454 97.0524Z" fill="#FBF8F0"/></g></g></g></g></g></g><g id="Clip path group_3"><mask id="mask2_12_2" style="mask-type:luminance" maskUnits="userSpaceOnUse" x="0" y="0" width="185" height="104"><g id="clippath-2"><path id="Vector_5" d="M184.948 0H0V104H184.948V0Z" fill="white"/></g></mask><g mask="url(#mask2_12_2)"><g id="Group_3"><g id="Clip path group_4"><mask id="mask3_12_2" style="mask-type:luminance" maskUnits="userSpaceOnUse" x="0" y="0" width="185" height="104"><g id="clippath-3"><path id="Vector_6" d="M184.948 0H0V104H184.948V0Z" fill="white"/></g></mask><g mask="url(#mask3_12_2)"><g id="Group_4"><g id="Clip path group_5"><mask id="mask4_12_2" style="mask-type:luminance" maskUnits="userSpaceOnUse" x="0" y="0" width="185" height="104"><g id="clippath-4"><path id="Vector_7" d="M184.948 0H0V104H184.948V0Z" fill="white"/></g></mask><g mask="url(#mask4_12_2)"><g id="Group_5"><path id="Vector_8" d="M63.4399 30.6157C59.8053 37.0219 58.9369 47.3951 57.6342 57.2214C65.016 56.2458 69.9534 47.8829 69.9534 39.788C69.9534 31.6932 65.1232 23.9843 53.0721 23.9843C41.021 23.9843 34.8882 33.4355 34.8882 41.5249C34.8882 47.6631 38.2012 53.0346 44.334 53.0346C45.1488 53.0346 45.91 52.9274 46.6123 52.7612L47.4808 57.4305C46.4515 57.8111 45.3096 57.972 44.1142 57.972C35.2098 57.972 30.4333 50.6973 30.4333 42.6025C30.4333 32.5563 37.8152 21.261 53.7208 21.261C68.5917 21.261 74.8907 30.4388 74.8907 39.8309C74.8907 49.2231 68.1039 59.5963 57.1946 60.0305C55.4577 71.9744 52.5789 82.4012 42.6453 82.4012C36.3463 82.4012 32.8725 78.7612 32.8725 73.2235C32.8725 68.8223 35.9121 64.48 41.3962 64.2656V68.7204C38.5764 69.0474 36.7806 71.76 36.7806 74.2581C36.7806 77.7856 39.4395 79.7423 42.4791 79.7423C56.428 79.7423 49.4804 45.4759 58.4919 28.9163L63.4346 30.5996L63.4399 30.6157Z" fill="#FBF8F0"/><path id="Vector_9" d="M85.859 45.0631H89.7134C88.0837 52.2841 87.0544 58.1489 86.2932 63.5258C86.186 64.1208 86.186 64.5551 86.186 64.9357C86.186 65.7505 86.3468 66.1311 86.6202 66.1311C87.2153 66.1311 89.499 63.5258 92.1043 56.7926C92.4313 56.7926 93.6214 57.2268 93.6214 57.5538C90.3085 66.2437 87.6495 70.0445 85.1513 70.0445C83.4144 70.0445 82.4388 68.4685 82.4388 64.7212V64.1262C81.1897 67.4392 79.292 70.3179 76.1398 70.3179C73.4808 70.3179 72.3926 67.3856 72.3926 63.4239C72.3926 55.7687 76.574 44.4734 81.7311 44.4734C83.7415 44.4734 84.8779 45.6689 85.2586 48.1134L85.8536 45.0738L85.859 45.0631ZM76.9546 62.8718C76.9546 64.5551 77.2817 65.6969 78.0965 65.6969C80.5946 65.6969 83.6878 56.8462 83.6878 51.7963C83.6878 49.786 83.2 48.3761 82.0045 48.3761C79.7262 48.3761 76.9546 57.9344 76.9546 62.8771" fill="#FBF8F0"/><path id="Vector_10" d="M104.37 56.7926C104.643 56.7926 105.673 57.2268 105.673 57.5002V57.5538C102.472 66.2437 99.974 70.3126 96.4466 70.3126C93.1872 70.3126 91.8845 67.1122 91.8845 61.4619C91.8845 57.5002 92.5332 52.2841 93.6214 46.0924C96.066 32.4598 99.4808 26.327 102.633 26.327C105.458 26.327 106.268 28.6054 106.268 31.3769C106.268 34.5827 105.185 38.4371 104.638 40.1204C102.413 47.2342 98.7732 52.5575 96.602 55.2165C96.3286 57.5538 96.1678 59.6713 96.1678 61.4083C96.1678 65.0483 96.9827 66.1847 98.2317 66.1847C99.9687 66.1847 102.033 62.8181 104.365 56.7926M103.335 29.967C101.872 29.967 98.666 41.6965 97.0952 51.7963C99.8078 46.8536 103.828 37.7885 103.882 31.1625C103.882 30.4012 103.609 29.967 103.341 29.967" fill="#FBF8F0"/><path id="Vector_11" d="M112.781 32.1918C112.508 36.6466 111.966 40.7691 111.044 45.1167C111.912 45.1167 112.674 45.0631 113.162 45.0095L112.674 47.5612C112.454 47.6148 111.425 47.6148 110.449 47.6148C109.961 49.6788 109.42 51.7963 108.766 54.021C108.224 57.7682 107.951 60.5934 107.951 62.5984C107.951 64.8821 108.331 66.0722 109.039 66.0722C110.503 66.0722 112.62 60.9687 114.25 56.7872C114.577 56.7872 115.767 57.2751 115.767 57.5485C112.567 66.2384 110.883 70.0392 107.356 70.0392C104.97 70.0392 103.989 67.1068 103.989 62.4911C103.989 58.5241 104.584 53.1526 105.833 47.6148C104.584 47.6148 103.662 47.6148 103.442 47.5612L103.823 45.0095C104.204 45.0095 105.126 45.0631 106.268 45.0631C106.975 41.3159 107.677 37.6759 108.927 32.1918H112.781Z" fill="#FBF8F0"/><path id="Vector_12" d="M117.123 70.3126C114.464 70.3126 113.376 67.3802 113.376 63.4186C113.376 55.7633 117.557 44.468 122.715 44.468C124.725 44.468 125.861 45.6635 126.242 48.108L126.837 45.0685H130.691C128.847 53.3241 127.11 60.2181 127.11 66.0829C127.11 75.3142 132.648 79.7101 139.489 79.7101C148.334 79.7101 154.74 71.7278 154.74 61.8425C154.74 53.5868 150.178 49.0247 141.494 48.1027L141.874 43.814C153.384 44.6825 158.428 52.1769 158.428 61.5691C158.428 70.9612 151.374 82.4227 139.322 82.4227C128.359 82.4227 123.417 75.7431 123.417 64.8285V64.1208C122.168 67.4338 120.27 70.3126 117.118 70.3126M117.933 62.8717C117.933 64.555 118.26 65.6969 119.075 65.6969C121.573 65.6969 124.666 56.8462 124.666 51.7963C124.666 49.786 124.178 48.3761 122.983 48.3761C120.704 48.3761 117.933 57.9344 117.933 62.8771" fill="#FBF8F0"/></g></g></g></g></g></g></g></g></g></g></svg>